<!-- 2<?xml version="1.0" standalone="no"?> -->
<!DOCTYPE svg PUBLIC "-//W3C//DTD SVG 20010904//EN"
 "http://www.w3.org/TR/2001/REC-SVG-20010904/DTD/svg10.dtd">
<svg version="1.0" xmlns="http://www.w3.org/2000/svg"
 width="300.000000pt" height="300.000000pt" viewBox="0 0 300.000000 300.000000"
 preserveAspectRatio="xMidYMid meet">

<g transform="translate(0.000000,300.000000) scale(0.100000,-0.100000)"
fill="#330662" stroke="none">
<path d="M1083 2905 c3 -69 8 -90 37 -143 18 -35 54 -82 79 -104 47 -42 132
-88 163 -88 9 0 20 -4 23 -10 3 -5 -1 -10 -10 -10 -58 0 -170 -94 -206 -174
-21 -47 -25 -154 -7 -207 32 -94 127 -178 225 -200 l53 -12 0 -92 c0 -83 -2
-95 -29 -136 -34 -55 -88 -84 -153 -83 -53 0 -94 23 -109 60 -21 58 48 118 91
79 11 -10 20 -26 20 -37 0 -10 7 -18 15 -18 9 0 15 9 15 23 0 59 -72 99 -133
73 -68 -28 -91 -96 -55 -165 50 -97 177 -110 296 -29 l42 29 0 -97 0 -97 -22
20 c-52 47 -147 77 -212 66 -52 -8 -111 -66 -120 -116 -19 -106 102 -181 175
-108 29 29 38 64 19 76 -5 3 -16 -10 -24 -30 -12 -28 -20 -35 -43 -35 -37 0
-49 9 -63 45 -9 24 -8 33 8 54 59 80 186 63 254 -34 28 -39 28 -42 26 -166
l-3 -126 -39 -59 c-78 -117 -224 -234 -324 -259 -66 -17 -64 -42 4 -64 81 -27
144 -69 230 -155 79 -79 134 -163 134 -206 0 -11 7 -23 15 -26 21 -8 45 14 45
41 0 36 71 135 151 210 84 80 145 119 212 136 26 6 50 16 53 21 10 15 -16 33
-66 47 -98 28 -256 162 -318 271 -31 53 -32 59 -32 173 0 128 7 152 57 199 56
53 137 64 194 25 60 -40 46 -127 -21 -127 -30 0 -50 16 -50 41 0 24 -19 34
-26 15 -11 -28 6 -65 36 -81 49 -25 88 -19 126 19 28 28 34 41 34 77 0 140
-174 193 -305 93 l-45 -34 0 96 0 95 35 -27 c132 -100 315 -53 315 83 0 57
-28 99 -77 112 -62 17 -123 -21 -123 -78 0 -31 20 -25 32 9 18 53 90 49 104
-5 16 -65 -29 -109 -111 -109 -63 0 -107 23 -145 76 -28 39 -30 46 -30 138 l0
98 37 7 c89 16 183 87 224 167 26 51 35 148 20 205 -24 90 -125 194 -203 210
-36 7 -31 12 33 34 148 52 250 196 248 348 0 60 -2 58 -34 -32 -24 -69 -103
-150 -183 -189 -62 -30 -74 -33 -172 -33 -93 0 -111 3 -162 27 -102 48 -178
133 -215 243 -13 39 -13 38 -10 -40z m357 -641 l0 -247 -36 6 c-52 9 -121 52
-154 98 -70 97 -58 222 29 309 41 41 107 77 149 79 9 1 12 -55 12 -245z m144
222 c86 -36 146 -129 146 -226 -1 -113 -76 -206 -192 -238 l-38 -10 0 250 0
250 27 -7 c15 -3 41 -12 57 -19z m-144 -1726 l0 -240 -71 74 c-39 41 -102 96
-140 122 l-69 47 63 41 c34 22 96 76 137 118 41 43 76 77 78 78 1 0 2 -108 2
-240z m278 42 l62 -40 -42 -25 c-57 -34 -145 -110 -197 -170 l-41 -48 0 240 0
240 78 -78 c42 -43 105 -97 140 -119z"/>
<path d="M1037 1869 c-201 -47 -310 -257 -224 -431 52 -106 152 -169 276 -174
64 -3 70 -2 38 6 -125 32 -221 134 -242 257 -21 130 80 288 208 324 23 7 46
16 52 21 12 10 -59 9 -108 -3z"/>
<path d="M1793 1873 c4 -6 21 -13 39 -17 49 -10 133 -70 167 -120 86 -125 69
-281 -42 -383 -50 -47 -89 -69 -144 -83 -32 -8 -27 -9 37 -6 175 7 303 134
304 301 0 165 -123 291 -303 311 -43 5 -62 4 -58 -3z"/>
<path d="M1393 250 c-97 -59 -86 -190 19 -234 63 -26 110 -16 160 34 32 31 38
44 38 79 0 54 -22 97 -63 121 -42 26 -112 26 -154 0z"/>
</g>
</svg>
